<svg width="24" height="26" viewBox="0 0 24 26" fill="none" xmlns="http://www.w3.org/2000/svg">
<path d="M19 12.1477H5C3.89543 12.1477 3 13.0612 3 14.188V21.3289C3 22.4557 3.89543 23.3692 5 23.3692H19C20.1046 23.3692 21 22.4557 21 21.3289V14.188C21 13.0612 20.1046 12.1477 19 12.1477Z" stroke="#E2E8F0" stroke-width="2" stroke-linecap="round" stroke-linejoin="round"/>
<path d="M7 12.1477V8.06718C7 6.7144 7.52678 5.41702 8.46447 4.46046C9.40215 3.5039 10.6739 2.96651 12 2.96651C13.3261 2.96651 14.5979 3.5039 15.5355 4.46046C16.4732 5.41702 17 6.7144 17 8.06718V12.1477" stroke="#E2E8F0" stroke-width="2" stroke-linecap="round" stroke-linejoin="round"/>
</svg>
