<svg width="49" height="48" viewBox="0 0 49 48" fill="none" xmlns="http://www.w3.org/2000/svg">
<path d="M36.5 25V20C36.5 18.9391 36.0786 17.9217 35.3284 17.1716C34.5783 16.4214 33.5609 16 32.5 16C31.4391 16 30.4217 16.4214 29.6716 17.1716C28.9214 17.9217 28.5 18.9391 28.5 20V22.8" stroke="#E2E8F0" stroke-width="3" stroke-linecap="round" stroke-linejoin="round"/>
<path d="M28.5 22V18C28.5 16.9391 28.0786 15.9217 27.3284 15.1716C26.5783 14.4214 25.5609 14 24.5 14C23.4391 14 22.4217 14.4214 21.6716 15.1716C20.9214 15.9217 20.5 16.9391 20.5 18V22" stroke="#E2E8F0" stroke-width="3" stroke-linecap="round" stroke-linejoin="round"/>
<path d="M20.5 21V10C20.5 8.93913 20.0786 7.92172 19.3284 7.17157C18.5783 6.42143 17.5609 6 16.5 6C15.4391 6 14.4217 6.42143 13.6716 7.17157C12.9214 7.92172 12.5 8.93913 12.5 10V28" stroke="#E2E8F0" stroke-width="3" stroke-linecap="round" stroke-linejoin="round"/>
<path d="M14.5002 30L10.9802 26.48C10.2205 25.7892 9.22429 25.417 8.19775 25.4404C7.17121 25.4638 6.19299 25.8811 5.46565 26.6059C4.7383 27.3307 4.31753 28.3074 4.29045 29.3339C4.26338 30.3603 4.63208 31.3579 5.32021 32.12L12.5202 39.32C15.5002 42.28 18.9002 44 24.5002 44H28.5002C32.7437 44 36.8133 42.3143 39.8139 39.3137C42.8145 36.3131 44.5002 32.2435 44.5002 28V14C44.5002 12.9391 44.0788 11.9217 43.3286 11.1716C42.5785 10.4214 41.5611 10 40.5002 10C39.4393 10 38.4219 10.4214 37.6718 11.1716C36.9216 11.9217 36.5002 12.9391 36.5002 14V24" stroke="#E2E8F0" stroke-width="3" stroke-linecap="round" stroke-linejoin="round"/>
</svg>
